<?xml version="1.0" encoding="UTF-8"?>
<svg version="1.1" xmlns="http://www.w3.org/2000/svg" width="512" height="512">
<path d="M0 0 C0.84151108 -0.00524185 1.68302216 -0.0104837 2.55003357 -0.0158844 C4.31907045 -0.02227474 6.08815 -0.02100656 7.85717773 -0.01245117 C10.55464442 -0.00391874 13.2500064 -0.03277844 15.94726562 -0.06445312 C17.67317645 -0.06606492 19.39909101 -0.06548802 21.125 -0.0625 C22.32522545 -0.07935097 22.32522545 -0.07935097 23.54969788 -0.09654236 C28.82759897 -0.03120296 31.78240203 0.98536993 35.99609375 4.43359375 C40.89730679 9.84182883 40.27286059 16.02403589 40.21484375 23.0078125 C39.86597871 28.47128815 38.50264982 31.65311839 34.93359375 35.87109375 C32.99609375 37.43359375 32.99609375 37.43359375 30.99609375 37.43359375 C32.64609375 50.63359375 34.29609375 63.83359375 35.99609375 77.43359375 C37.97609375 78.09359375 39.95609375 78.75359375 41.99609375 79.43359375 C45.03125 81.45703125 45.03125 81.45703125 48.05859375 83.80859375 C49.06019531 84.57945313 50.06179688 85.3503125 51.09375 86.14453125 C53.99609375 88.43359375 53.99609375 88.43359375 56.31640625 90.80078125 C60.35249906 93.26009145 63.35229707 92.16165244 67.80859375 91.18359375 C97.24598846 85.70490495 127.77610299 93.23054611 152.48071289 110.0012207 C159.87574317 115.21588803 166.49654306 121.15656691 172.99609375 127.43359375 C173.78628906 128.17222656 174.57648438 128.91085938 175.390625 129.671875 C206.49290136 159.4668753 222.68012744 204.62259078 227.99609375 246.43359375 C228.0834227 247.11462158 228.17075165 247.79564941 228.26072693 248.49731445 C228.90239302 253.83729496 229.16878379 259.09667264 229.19921875 264.47265625 C229.20627838 265.30779755 229.21333801 266.14293884 229.22061157 267.00338745 C229.45203488 302.44650346 229.45203488 302.44650346 225.99609375 319.43359375 C225.69010254 320.93865479 225.69010254 320.93865479 225.37792969 322.47412109 C217.73814759 358.79922769 203.34133293 391.61548277 178.07421875 419.109375 C175.95900921 421.4192805 175.95900921 421.4192805 174.04296875 423.9609375 C170.31224294 428.46771123 165.57685836 431.83021593 160.99609375 435.43359375 C160.07570313 436.18125 159.1553125 436.92890625 158.20703125 437.69921875 C133.77162853 456.95135423 103.44880093 465.13204548 72.60205078 462.20654297 C60.72596327 460.75059883 48.77299488 457.55283813 38.18359375 451.93359375 C33.8000396 449.89720385 31.03875955 450.824055 26.6171875 452.42578125 C25.31974609 452.92464844 25.31974609 452.92464844 23.99609375 453.43359375 C9.45181742 458.51397466 -8.39671798 458.36002396 -23.00390625 453.43359375 C-24.08478516 452.88251953 -24.08478516 452.88251953 -25.1875 452.3203125 C-29.31305428 450.30042864 -31.26578871 450.19038557 -35.73828125 451.6640625 C-37.91282241 452.56660634 -40.05707863 453.52030923 -42.19970703 454.49609375 C-47.4328764 456.86617614 -52.52274997 458.55500867 -58.12890625 459.80859375 C-58.8146875 459.96336182 -59.50046875 460.11812988 -60.20703125 460.27758789 C-91.97666234 467.12596793 -122.98254796 459.8159642 -150.0234375 442.5 C-152.76927799 440.56625289 -155.39300226 438.54612005 -158.00390625 436.43359375 C-158.8252002 435.77037109 -158.8252002 435.77037109 -159.66308594 435.09375 C-188.5654686 411.56373522 -206.98727938 379.71647891 -218.00390625 344.43359375 C-218.3594458 343.29833252 -218.3594458 343.29833252 -218.72216797 342.14013672 C-220.4054342 336.62416579 -221.78697027 331.07003906 -223.00390625 325.43359375 C-223.20145508 324.52512695 -223.39900391 323.61666016 -223.60253906 322.68066406 C-229.50274421 294.04873565 -229.94989948 261.09257883 -224.00390625 232.43359375 C-223.83761719 231.56331543 -223.67132813 230.69303711 -223.5 229.79638672 C-214.61458187 183.60043971 -191.17099093 138.04261114 -151.671875 110.859375 C-150.45256044 110.04575091 -149.22998981 109.23698112 -148.00390625 108.43359375 C-147.43881348 108.06153809 -146.8737207 107.68948242 -146.29150391 107.30615234 C-132.63537047 98.50075397 -116.99458832 93.04987027 -101.00390625 90.43359375 C-100.2459375 90.30339844 -99.48796875 90.17320313 -98.70703125 90.0390625 C-87.55854087 88.46737683 -76.13671915 89.1068419 -65.08984375 90.99609375 C-58.60315763 91.99290366 -58.60315763 91.99290366 -52.75 89.31640625 C-51.63533367 88.41148187 -50.53259451 87.49169467 -49.44140625 86.55859375 C-45.78516852 83.50531453 -42.50874091 81.09696136 -38.00390625 79.43359375 C-37.86815186 78.25555176 -37.73239746 77.07750977 -37.5925293 75.86376953 C-37.07705715 71.40131994 -36.55557354 66.93958831 -36.0324707 62.47802734 C-35.80888084 60.56414931 -35.58682087 58.65009178 -35.36645508 56.73583984 C-34.23743843 46.93731264 -33.05301802 37.15239157 -31.50390625 27.41015625 C-31.39378708 26.6852298 -31.28366791 25.96030334 -31.17021179 25.21340942 C-29.81299296 17.04588095 -26.51007814 11.15352881 -20.06640625 5.99609375 C-13.56567605 1.37243214 -7.81198343 -0.02873375 0 0 Z " fill="#FE6F36" transform="translate(255.00390625,27.56640625)"/>
<path d="M0 0 C0.84151108 -0.00524185 1.68302216 -0.0104837 2.55003357 -0.0158844 C4.31907045 -0.02227474 6.08815 -0.02100656 7.85717773 -0.01245117 C10.55464442 -0.00391874 13.2500064 -0.03277844 15.94726562 -0.06445312 C17.67317645 -0.06606492 19.39909101 -0.06548802 21.125 -0.0625 C22.32522545 -0.07935097 22.32522545 -0.07935097 23.54969788 -0.09654236 C28.82759897 -0.03120296 31.78240203 0.98536993 35.99609375 4.43359375 C40.89730679 9.84182883 40.27286059 16.02403589 40.21484375 23.0078125 C39.86597871 28.47128815 38.50264982 31.65311839 34.93359375 35.87109375 C32.99609375 37.43359375 32.99609375 37.43359375 30.99609375 37.43359375 C32.64609375 50.63359375 34.29609375 63.83359375 35.99609375 77.43359375 C37.97609375 78.09359375 39.95609375 78.75359375 41.99609375 79.43359375 C45.03125 81.45703125 45.03125 81.45703125 48.05859375 83.80859375 C49.06019531 84.57945313 50.06179688 85.3503125 51.09375 86.14453125 C53.99609375 88.43359375 53.99609375 88.43359375 56.31640625 90.80078125 C60.35249906 93.26009145 63.35229707 92.16165244 67.80859375 91.18359375 C97.24598846 85.70490495 127.77610299 93.23054611 152.48071289 110.0012207 C159.87574317 115.21588803 166.49654306 121.15656691 172.99609375 127.43359375 C173.78628906 128.17222656 174.57648438 128.91085938 175.390625 129.671875 C206.49290136 159.4668753 222.68012744 204.62259078 227.99609375 246.43359375 C228.0834227 247.11462158 228.17075165 247.79564941 228.26072693 248.49731445 C228.90239302 253.83729496 229.16878379 259.09667264 229.19921875 264.47265625 C229.20627838 265.30779755 229.21333801 266.14293884 229.22061157 267.00338745 C229.45203488 302.44650346 229.45203488 302.44650346 225.99609375 319.43359375 C225.69010254 320.93865479 225.69010254 320.93865479 225.37792969 322.47412109 C217.73814759 358.79922769 203.34133293 391.61548277 178.07421875 419.109375 C175.95900921 421.4192805 175.95900921 421.4192805 174.04296875 423.9609375 C170.31224294 428.46771123 165.57685836 431.83021593 160.99609375 435.43359375 C160.07570313 436.18125 159.1553125 436.92890625 158.20703125 437.69921875 C133.77162853 456.95135423 103.44880093 465.13204548 72.60205078 462.20654297 C60.72596327 460.75059883 48.77299488 457.55283813 38.18359375 451.93359375 C33.8000396 449.89720385 31.03875955 450.824055 26.6171875 452.42578125 C25.31974609 452.92464844 25.31974609 452.92464844 23.99609375 453.43359375 C9.45181742 458.51397466 -8.39671798 458.36002396 -23.00390625 453.43359375 C-24.08478516 452.88251953 -24.08478516 452.88251953 -25.1875 452.3203125 C-29.31305428 450.30042864 -31.26578871 450.19038557 -35.73828125 451.6640625 C-37.91282241 452.56660634 -40.05707863 453.52030923 -42.19970703 454.49609375 C-47.4328764 456.86617614 -52.52274997 458.55500867 -58.12890625 459.80859375 C-58.8146875 459.96336182 -59.50046875 460.11812988 -60.20703125 460.27758789 C-91.97666234 467.12596793 -122.98254796 459.8159642 -150.0234375 442.5 C-152.76927799 440.56625289 -155.39300226 438.54612005 -158.00390625 436.43359375 C-158.8252002 435.77037109 -158.8252002 435.77037109 -159.66308594 435.09375 C-188.5654686 411.56373522 -206.98727938 379.71647891 -218.00390625 344.43359375 C-218.3594458 343.29833252 -218.3594458 343.29833252 -218.72216797 342.14013672 C-220.4054342 336.62416579 -221.78697027 331.07003906 -223.00390625 325.43359375 C-223.20145508 324.52512695 -223.39900391 323.61666016 -223.60253906 322.68066406 C-229.50274421 294.04873565 -229.94989948 261.09257883 -224.00390625 232.43359375 C-223.83761719 231.56331543 -223.67132813 230.69303711 -223.5 229.79638672 C-214.61458187 183.60043971 -191.17099093 138.04261114 -151.671875 110.859375 C-150.45256044 110.04575091 -149.22998981 109.23698112 -148.00390625 108.43359375 C-147.43881348 108.06153809 -146.8737207 107.68948242 -146.29150391 107.30615234 C-132.63537047 98.50075397 -116.99458832 93.04987027 -101.00390625 90.43359375 C-100.2459375 90.30339844 -99.48796875 90.17320313 -98.70703125 90.0390625 C-87.55854087 88.46737683 -76.13671915 89.1068419 -65.08984375 90.99609375 C-58.60315763 91.99290366 -58.60315763 91.99290366 -52.75 89.31640625 C-51.63533367 88.41148187 -50.53259451 87.49169467 -49.44140625 86.55859375 C-45.78516852 83.50531453 -42.50874091 81.09696136 -38.00390625 79.43359375 C-37.86815186 78.25555176 -37.73239746 77.07750977 -37.5925293 75.86376953 C-37.07705715 71.40131994 -36.55557354 66.93958831 -36.0324707 62.47802734 C-35.80888084 60.56414931 -35.58682087 58.65009178 -35.36645508 56.73583984 C-34.23743843 46.93731264 -33.05301802 37.15239157 -31.50390625 27.41015625 C-31.39378708 26.6852298 -31.28366791 25.96030334 -31.17021179 25.21340942 C-29.81299296 17.04588095 -26.51007814 11.15352881 -20.06640625 5.99609375 C-13.56567605 1.37243214 -7.81198343 -0.02873375 0 0 Z M-62.00390625 110.43359375 C-64.39163323 113.57836749 -66.63681798 116.81236559 -68.72070312 120.16650391 C-69.8203125 121.86328125 -69.8203125 121.86328125 -72.00390625 124.43359375 C-74.78125 124.81640625 -74.78125 124.81640625 -77.00390625 124.43359375 C-76.62883985 118.39425926 -74.92846575 115.31231558 -71.06640625 110.74609375 C-67.0275106 105.92191926 -67.0275106 105.92191926 -64.00390625 100.43359375 C-69.89711046 97.85531691 -75.69592607 98.12890028 -82.00390625 98.18359375 C-83.12587402 98.19108643 -84.2478418 98.1985791 -85.40380859 98.20629883 C-116.92712387 98.61465557 -142.63502914 111.83499478 -165.00390625 133.43359375 C-165.85726562 134.22378906 -166.710625 135.01398438 -167.58984375 135.828125 C-189.30139086 156.47806649 -202.48645917 185.17504021 -211.00390625 213.43359375 C-211.20999512 214.10648438 -211.41608398 214.779375 -211.62841797 215.47265625 C-221.1890011 247.40249896 -222.18557349 283.75906692 -216.00390625 316.43359375 C-215.745149 317.97770656 -215.48732901 319.52197674 -215.23046875 321.06640625 C-207.87766977 362.48396047 -185.96178546 404.75325925 -152.00390625 430.43359375 C-151.23949219 431.02527344 -150.47507812 431.61695313 -149.6875 432.2265625 C-137.74967271 441.05368691 -124.30392016 447.52931364 -110.00390625 451.43359375 C-109.07143066 451.70743896 -109.07143066 451.70743896 -108.12011719 451.98681641 C-100.6216371 453.95963502 -92.95660684 453.9139368 -85.25390625 453.93359375 C-84.52657288 453.93726959 -83.7992395 453.94094543 -83.04986572 453.94473267 C-67.51548621 453.95732476 -54.19532503 450.70115668 -40.00390625 444.43359375 C-40.72707031 443.86511719 -41.45023438 443.29664063 -42.1953125 442.7109375 C-44.86098121 440.54948429 -47.40558023 438.30758129 -49.94140625 435.99609375 C-52.59980005 433.57687697 -55.22463634 431.26241531 -58.06640625 429.05859375 C-68.13991669 420.05673336 -80.45506728 404.36332391 -85.00390625 391.43359375 C-84.6171875 389.1953125 -84.6171875 389.1953125 -84.00390625 387.43359375 C-81.8046875 387.5 -81.8046875 387.5 -79.00390625 388.43359375 C-77.18605677 390.7318537 -75.69630919 392.88351949 -74.19140625 395.37109375 C-73.31196182 396.75345059 -72.42913125 398.13365889 -71.54296875 399.51171875 C-71.11145508 400.18654297 -70.67994141 400.86136719 -70.23535156 401.55664062 C-67.46934347 405.77255462 -64.28356254 409.61239866 -61.00390625 413.43359375 C-60.19566406 414.3875 -59.38742188 415.34140625 -58.5546875 416.32421875 C-49.06012952 427.2610327 -38.09506049 436.1327111 -25.00390625 442.43359375 C-24.25882813 442.82160156 -23.51375 443.20960938 -22.74609375 443.609375 C-9.69172666 450.04297885 5.80308713 450.1020859 19.4609375 445.74609375 C53.31491498 433.17710322 73.06585024 403.20669214 88.99609375 372.43359375 C90.64609375 372.76359375 92.29609375 373.09359375 93.99609375 373.43359375 C93.45087198 377.58651127 92.53945375 380.83847416 90.625 384.55859375 C90.13829834 385.50565186 89.65159668 386.45270996 89.15014648 387.4284668 C88.36232788 388.91600464 88.36232788 388.91600464 87.55859375 390.43359375 C87.01726807 391.4594458 86.47594238 392.48529785 85.91821289 393.54223633 C78.85221843 406.69678168 70.34218969 417.7129785 59.99609375 428.43359375 C58.94615234 429.56087891 58.94615234 429.56087891 57.875 430.7109375 C53.0835771 435.73373696 47.7928348 439.63245208 41.99609375 443.43359375 C53.6266858 452.86670067 71.30484754 453.93646936 85.62109375 453.74609375 C86.84054687 453.74931641 88.06 453.75253906 89.31640625 453.75585938 C100.57379128 453.68971021 110.90798938 452.29206955 121.43359375 448.24609375 C122.24634766 447.93857178 123.05910156 447.6310498 123.89648438 447.31420898 C141.9148067 440.32231652 156.56785599 429.22475686 169.99609375 415.43359375 C170.72119141 414.77617188 170.72119141 414.77617188 171.4609375 414.10546875 C186.83226247 399.78301066 197.20982179 379.58785856 205.16162109 360.43652344 C205.88484678 358.70061251 206.6353144 356.97609905 207.390625 355.25390625 C223.22451304 317.35310758 225.05617459 271.27379758 216.99609375 231.43359375 C216.80885742 230.49837891 216.62162109 229.56316406 216.42871094 228.59960938 C212.63785024 210.20182259 206.80987454 192.70858391 197.91308594 176.14550781 C197.08116939 174.59241973 196.27537066 173.02541172 195.47265625 171.45703125 C178.90677347 139.6981289 151.27540487 113.40008144 116.8515625 102.50390625 C115.5672685 102.14404387 114.28198786 101.78769591 112.99609375 101.43359375 C112.11993408 101.17320312 111.24377441 100.9128125 110.34106445 100.64453125 C102.71535075 98.51823278 95.69926428 98.03549905 87.80859375 98.18359375 C86.69806641 98.18875 85.58753906 98.19390625 84.44335938 98.19921875 C78.22325324 98.2580725 72.1634271 98.62604429 65.99609375 99.43359375 C65.99609375 103.51796924 67.61443465 104.67723967 70.24609375 107.74609375 C78.87684373 118.06221853 78.87684373 118.06221853 79.24609375 122.30859375 C79.16359375 123.00984375 79.08109375 123.71109375 78.99609375 124.43359375 C76.83203125 124.83984375 76.83203125 124.83984375 73.99609375 124.43359375 C71.96089794 122.29633798 70.32318428 120.31134165 68.62109375 117.93359375 C67.64986985 116.63954873 66.67721904 115.3465734 65.703125 114.0546875 C65.23729004 113.42804199 64.77145508 112.80139648 64.29150391 112.15576172 C51.41700819 95.0399131 31.29724366 80.32958329 9.99609375 76.43359375 C-19.70434611 73.41197732 -43.11527349 88.78009512 -62.00390625 110.43359375 Z " fill="#140115" transform="translate(255.00390625,27.56640625)"/>
<path d="M0 0 C5.32461132 0.40881061 9.66888951 1.94228842 14.4453125 4.1953125 C15.8666684 4.83578867 17.28856147 5.47507382 18.7109375 6.11328125 C20.91505569 7.11270956 23.11420426 8.11992861 25.3046875 9.14892578 C34.97632399 13.6683209 42.167735 16.17846175 53 14 C53.77939941 13.86577637 54.55879883 13.73155273 55.36181641 13.59326172 C58.62081887 12.99746463 61.84445128 12.24276492 65.078125 11.5234375 C75.89389558 10.0798984 84.34001324 14.34808355 94.11328125 18.58203125 C95.72009766 19.25685547 95.72009766 19.25685547 97.359375 19.9453125 C98.32327148 20.36312988 99.28716797 20.78094727 100.28027344 21.21142578 C105.27447946 22.65947654 109.06797496 20.67463079 113.67578125 18.6796875 C114.75150391 18.22722656 115.82722656 17.77476562 116.93554688 17.30859375 C119.17975596 16.35587572 121.41942121 15.39237976 123.65429688 14.41796875 C133.20780521 10.43686498 137.6097938 10.57901644 147.07421875 14.3203125 C150.41365264 15.71988419 153.73986095 17.14759183 157.06445312 18.58203125 C158.14017578 19.03191406 159.21589844 19.48179687 160.32421875 19.9453125 C161.29447998 20.36312988 162.26474121 20.78094727 163.2644043 21.21142578 C168.2610136 22.6517692 172.08302368 20.67527416 176.7109375 18.71484375 C178.33128906 18.04291992 178.33128906 18.04291992 179.984375 17.35742188 C182.2395449 16.41300453 184.49217764 15.4625051 186.7421875 14.50585938 C197.76897549 9.95730933 205.50621195 11.3103755 216.90625 13.578125 C217.8446875 13.75859375 218.783125 13.9390625 219.75 14.125 C220.59046875 14.29257812 221.4309375 14.46015625 222.296875 14.6328125 C229.22455735 15.57385606 233.7438099 14.65624317 239.91015625 11.71875 C241.00595253 11.21933899 241.00595253 11.21933899 242.12388611 10.70983887 C244.44267772 9.65224499 246.75317296 8.57808793 249.0625 7.5 C251.37566591 6.42259543 253.69030979 5.3494645 256.01182556 4.29016113 C257.45147796 3.6331767 258.88650742 2.96593461 260.31593323 2.2869873 C264.36999719 0.43575135 267.54070795 -0.46312746 272 0 C272.33 0.33 272.66 0.66 273 1 C272.62199119 6.03641148 271.525598 9.42770855 268.8515625 13.68359375 C268.18471436 14.76116943 267.51786621 15.83874512 266.83081055 16.94897461 C266.09560096 18.11185472 265.36032913 19.27469548 264.625 20.4375 C263.4767005 22.28224715 262.33290393 24.12973243 261.18955994 25.97755432 C260.38635439 27.27557105 259.5818561 28.57278864 258.77613831 29.86924744 C255.71616681 34.80339083 252.73409594 39.78005426 249.78515625 44.78125 C249.35773132 45.50578873 248.9303064 46.23032745 248.4899292 46.9768219 C246.80805902 49.83071012 245.12809517 52.68569078 243.45318604 55.54367065 C242.28852524 57.5297917 241.11921704 59.51311374 239.94921875 61.49609375 C239.28237061 62.63232178 238.61552246 63.7685498 237.9284668 64.93920898 C234.17539496 70.89594549 234.17539496 70.89594549 232 73 C228.91333008 73.40551758 228.91333008 73.40551758 225.26953125 73.14453125 C223.90678872 73.08521284 222.54380581 73.03123328 221.18066406 72.98193359 C220.46753052 72.95153992 219.75439697 72.92114624 219.01965332 72.88983154 C201.00431272 72.25863204 190.43511774 76.9413034 176.33886719 88.20654297 C170.09134437 92.99717999 170.09134437 92.99717999 165.9765625 93.0078125 C159.03171334 91.62786684 152.45213859 88.19731877 145.984375 85.41796875 C144.90414062 84.96808594 143.82390625 84.51820313 142.7109375 84.0546875 C141.73431152 83.63687012 140.75768555 83.21905273 139.75146484 82.78857422 C134.7317371 81.34991223 130.87809791 83.33680515 126.21875 85.28515625 C124.58486328 85.95708008 124.58486328 85.95708008 122.91796875 86.64257812 C120.63793655 87.58976864 118.35928755 88.54029556 116.08203125 89.49414062 C114.99277344 89.94080078 113.90351563 90.38746094 112.78125 90.84765625 C111.79189453 91.26023682 110.80253906 91.67281738 109.78320312 92.09790039 C106.94240658 93.01866734 104.95927766 93.31753891 102 93 C99.55093595 91.60178584 97.34851867 90.18786936 95.0625 88.5625 C94.3926709 88.11527588 93.7228418 87.66805176 93.03271484 87.20727539 C89.84513502 85.06930125 86.93009236 82.93725999 84.06640625 80.3671875 C74.35382289 72.34430988 63.42914862 73.07694123 51.37548828 73.33569336 C50.65959534 73.34392624 49.94370239 73.35215912 49.20611572 73.36064148 C47.22400967 73.38909172 45.2424836 73.45187277 43.26123047 73.51660156 C40 73 40 73 37.80200195 70.88208008 C37.20734131 69.93099365 36.61268066 68.97990723 36 68 C35.04540894 66.48490845 35.04540894 66.48490845 34.0715332 64.93920898 C33.40468506 63.80298096 32.73783691 62.66675293 32.05078125 61.49609375 C31.68038223 60.86832031 31.30998322 60.24054688 30.92835999 59.59375 C29.71947597 57.54376052 28.51580932 55.49076591 27.3125 53.4375 C25.61578633 50.55060316 23.91626625 47.665374 22.21484375 44.78125 C21.78403503 44.05062851 21.35322632 43.32000702 20.90936279 42.56724548 C17.99738026 37.64428327 15.02298085 32.7641616 12.00390625 27.90625 C11.21637076 26.63355681 10.42885409 25.36085198 9.64135742 24.08813477 C8.52007959 22.27725894 7.39513114 20.46933415 6.25674438 18.66915894 C5.21020854 17.01385445 4.17899365 15.34889379 3.1484375 13.68359375 C2.26937744 12.28451782 2.26937744 12.28451782 1.37255859 10.85717773 C-0.22364762 7.53444539 -0.7250619 4.66314593 -1 1 C-0.67 0.67 -0.34 0.34 0 0 Z " fill="#160316" transform="translate(120,300)"/>
<path d="M0 0 C0.33 0 0.66 0 1 0 C1.2752279 21.92507819 1.09149767 43.3275882 -3.54492188 64.8671875 C-3.86171545 66.35190246 -4.16684142 67.83913489 -4.46289062 69.328125 C-11.78962678 105.99099598 -29.60450665 137.85430627 -56 164 C-56.76957031 164.76699219 -57.53914063 165.53398437 -58.33203125 166.32421875 C-81.64031877 188.53132733 -110.09590003 196.5874637 -141.70703125 196.28125 C-154.79559987 195.94551655 -166.14775868 192.57215199 -178 187 C-175.49559322 184.40634932 -172.98005142 182.17366485 -170.0625 180.0625 C-149.68944697 164.30600086 -136.94697351 142.93102872 -126 120 C-124.87722656 120.33773437 -123.75445312 120.67546875 -122.59765625 121.0234375 C-118.07311132 122.37705918 -113.53902009 123.69583391 -109 125 C-108.11699219 125.25652344 -107.23398437 125.51304687 -106.32421875 125.77734375 C-91.25535598 129.6651671 -74.56495356 126.12298104 -61 119 C-57.14871531 116.54448292 -53.56272443 113.85460529 -50 111 C-49.31421875 110.47921875 -48.6284375 109.9584375 -47.921875 109.421875 C-36.36345278 100.11875467 -28.72667942 86.97979137 -22 74 C-21.54536377 73.16355957 -21.09072754 72.32711914 -20.62231445 71.46533203 C-16.37404683 63.40657685 -13.40855839 55.11535552 -10.58520508 46.48291016 C-9.81460889 44.13143526 -9.02655156 41.78634836 -8.23632812 39.44140625 C-3.90704452 26.44937091 -0.73027167 13.74925282 0 0 Z " fill="#B74E2C" transform="translate(475,285)"/>
<path d="M0 0 C0.33 0 0.66 0 1 0 C1.09796875 1.01835937 1.1959375 2.03671875 1.296875 3.0859375 C5.37501922 42.89072133 20.14485389 90.57725769 51.60498047 117.36669922 C72.55151306 134.25235659 95.47670161 138.75258762 122 137 C123.33624405 136.67853347 124.67007295 136.34667411 126 136 C128.33300933 135.96111651 130.66709801 135.9551365 133 136 C133.33 135.34 133.66 134.68 134 134 C134.72703125 135.32451172 134.72703125 135.32451172 135.46875 136.67578125 C146.27771552 156.13410061 159.87265878 174.11003114 179 186 C175.50776304 189.08720947 171.6359418 190.27035915 167.25 191.5625 C166.23292969 191.87477539 166.23292969 191.87477539 165.1953125 192.19335938 C163.81174228 192.61290206 162.42444678 193.02032906 161.03393555 193.41625977 C159.16989608 193.95123976 157.32025243 194.53573344 155.47265625 195.125 C148.87078873 196.72586819 141.94389396 196.44211027 135.1875 196.4375 C134.45045837 196.4375705 133.71341675 196.43764099 132.95404053 196.43771362 C100.038124 196.31659077 73.53914694 181.00100335 50.31640625 158.38671875 C21.66514515 128.17682905 6.94183637 87.52408009 1 47 C0.8858374 46.23042969 0.7716748 45.46085937 0.65405273 44.66796875 C-0.44250892 35.79570089 -0.10755396 26.79738506 -0.0625 17.875 C-0.05747515 16.13802212 -0.05291398 14.40104284 -0.04882812 12.6640625 C-0.03790014 8.44267312 -0.02068978 4.22135236 0 0 Z " fill="#B74E2C" transform="translate(36,285)"/>
<path d="M0 0 C4.41077412 1.338985 8.63701726 2.79435334 12.80859375 4.7578125 C13.48792969 5.07355225 14.16726562 5.38929199 14.8671875 5.71459961 C16.21467913 6.34782534 17.55510727 6.99638099 18.88671875 7.66235352 C28.80443773 12.29268857 38.87891179 9.47646369 49.140625 7.33398438 C50.06875 7.15029297 50.996875 6.96660156 51.953125 6.77734375 C52.77973633 6.60452881 53.60634766 6.43171387 54.45800781 6.25366211 C59.69558443 5.73101112 63.99503887 7.24188021 68.73828125 9.3203125 C69.80626953 9.77277344 70.87425781 10.22523438 71.97460938 10.69140625 C74.19283542 11.64411422 76.40646019 12.60761047 78.61523438 13.58203125 C86.67470792 16.96478082 91.68025122 18.00035129 99.8918457 14.91259766 C104.22501559 13.11382164 108.50316471 11.21081248 112.76171875 9.2421875 C121.7564918 5.36380789 121.7564918 5.36380789 126.65625 6.9375 C128.12032007 7.58989387 129.56841906 8.2791013 131 9 C132.64289324 9.69965276 134.28884967 10.39214811 135.9375 11.078125 C138.48019508 12.1644777 141.01679447 13.25754459 143.5390625 14.390625 C152.06678415 17.98124464 157.59247369 17.09712579 166.06640625 13.6796875 C169.33998948 12.28608203 172.59696155 10.85972471 175.84960938 9.41796875 C182.27389825 6.69534967 186.18040018 5.3725955 193 7 C194.46584208 7.26050554 195.93340843 7.51144977 197.40234375 7.75390625 C199.67015876 8.15572308 201.93666346 8.56234482 204.20117188 8.98242188 C215.10351957 10.89197889 221.79316903 9.75279907 231.875 4.9375 C233.91006757 3.97974633 235.94897449 3.03009517 237.9921875 2.08984375 C238.88276855 1.66566162 239.77334961 1.24147949 240.69091797 0.80444336 C243 0 243 0 246 1 C243.65389263 4.8788057 241.30601315 8.75653107 238.95654297 12.63330078 C238.15886397 13.95006834 237.36165526 15.26712091 236.56494141 16.58447266 C235.414347 18.48676954 234.26201981 20.38800748 233.109375 22.2890625 C232.75816589 22.87056061 232.40695679 23.45205872 232.04510498 24.05117798 C231.03996537 25.70683337 230.02015758 27.35355567 229 29 C228.43394043 30.12414307 227.86788086 31.24828613 227.28466797 32.40649414 C225 35 225 35 221.10302734 35.50317383 C219.5125941 35.4304912 217.92328616 35.32985188 216.3359375 35.20703125 C214.56757121 35.13941034 212.7989949 35.07711878 211.03027344 35.01953125 C209.64382629 34.96466553 209.64382629 34.96466553 208.22937012 34.90869141 C187.59991562 34.21348505 174.9496502 37.56194882 159.40136719 51.34179688 C156.47190434 53.36466304 154.54994316 53.84580226 151 54 C148.13500977 53.19555664 148.13500977 53.19555664 145.19140625 51.91015625 C144.11439453 51.45576172 143.03738281 51.00136719 141.92773438 50.53320312 C140.81720703 50.04787109 139.70667969 49.56253906 138.5625 49.0625 C126.0442188 43.58023756 126.0442188 43.58023756 113.0234375 46.22265625 C109.66630151 47.63545098 106.32585288 49.08381785 102.984375 50.53320312 C101.90414062 50.98759766 100.82390625 51.44199219 99.7109375 51.91015625 C98.73431152 52.33433838 97.75768555 52.75852051 96.75146484 53.19555664 C93.56502531 54.12717317 92.12805601 54.06203184 89 53 C86.15332031 51.43359375 86.15332031 51.43359375 83.078125 49.4375 C81.97082031 48.72335937 80.86351562 48.00921875 79.72265625 47.2734375 C78.56506636 46.51568276 77.40751472 45.75786957 76.25 45 C75.07726874 44.24149776 73.90409581 43.48367792 72.73046875 42.7265625 C64.19777824 37.19777824 64.19777824 37.19777824 63 36 C60.8534647 36.02661768 58.70666664 36.06288876 56.56152344 36.14463806 C52.72411967 36.28626161 48.88691357 36.32747338 45.04736328 36.3762207 C43.02938266 36.41680019 41.01174827 36.48415807 38.99560547 36.5793457 C22.71052885 37.31202681 22.71052885 37.31202681 18.26467896 33.51980591 C15.28763186 29.72136466 13.49747263 25.46738233 11.79425049 20.98239136 C10.72114608 18.30400092 9.27485145 15.95624432 7.71484375 13.53515625 C7.24755859 12.77912109 6.78027344 12.02308594 6.29882812 11.24414062 C5.84958984 10.52419922 5.40035156 9.80425781 4.9375 9.0625 C3.98631911 7.53377119 3.0369854 6.0038909 2.08984375 4.47265625 C1.68628662 3.82562744 1.28272949 3.17859863 0.86694336 2.51196289 C0 1 0 1 0 0 Z " fill="#FBC244" transform="translate(133,313)"/>
<path d="M0 0 C4.23241848 4.23241848 3.21856712 10.49851484 3.25 16.125 C3.270625 17.02476562 3.29125 17.92453125 3.3125 18.8515625 C3.40083265 34.22144353 -3.81669257 47.61714817 -14.328125 58.55859375 C-28.53365772 71.53879543 -43.92097585 73.8093834 -62.39697266 73.17919922 C-75.98869359 72.24350956 -87.84839218 63.52074831 -97 54 C-102.70199603 47.16414625 -107.41222204 39.48592765 -108.375 30.5 C-108 28 -108 28 -106 26 C-103.90307617 25.31738281 -103.90307617 25.31738281 -101.29296875 24.703125 C-100.32456055 24.46972412 -99.35615234 24.23632324 -98.35839844 23.99584961 C-97.31200195 23.74971924 -96.26560547 23.50358887 -95.1875 23.25 C-87.15553978 21.30680317 -79.18091205 19.25962406 -71.25 16.9375 C-64.53136909 14.97650237 -57.79931634 13.15996458 -51 11.5 C-44.01618725 9.79390403 -37.09446446 7.93224833 -30.1875 5.9375 C-29.31351562 5.68605225 -28.43953125 5.43460449 -27.5390625 5.17553711 C-24.25872328 4.23083157 -20.97856826 3.28564963 -17.70166016 2.32910156 C-15.63731059 1.72952096 -13.56945507 1.14416924 -11.5 0.5625 C-9.78296875 0.06943359 -9.78296875 0.06943359 -8.03125 -0.43359375 C-4.90585926 -1.01759073 -3.00672968 -0.97930456 0 0 Z " fill="#170316" transform="translate(390,207)"/>
<path d="M0 0 C1.90265625 0.42152344 1.90265625 0.42152344 3.84375 0.8515625 C11.7969704 2.6476929 19.61803567 4.71406249 27.42114258 7.07568359 C32.82719663 8.69620782 38.26757703 10.10015426 43.75 11.4375 C51.59500709 13.35307956 59.35111816 15.49500169 67.10180664 17.76049805 C74.27774447 19.84045079 81.50330214 21.66360471 88.78125 23.3515625 C94.78654234 24.78654234 94.78654234 24.78654234 97 27 C97.19178414 36.97277537 91.17783275 46.83576487 84.9375 54.3125 C73.96438553 65.62095583 60.62286882 71.94134048 44.85498047 72.46630859 C35.65357861 72.57256746 27.37898269 72.1587315 19 68 C17.98808594 67.50242187 16.97617188 67.00484375 15.93359375 66.4921875 C2.19878749 59.10048951 -6.56808374 47.87178882 -12.2734375 33.484375 C-14.10521154 27.22088958 -14.18241861 20.90610865 -14.1875 14.4375 C-14.19974609 13.61314453 -14.21199219 12.78878906 -14.22460938 11.93945312 C-14.23583956 7.25646604 -13.95893899 3.3509066 -12 -1 C-8.28749646 -2.85625177 -3.90489055 -0.88144374 0 0 Z " fill="#170416" transform="translate(133,208)"/>
<path d="M0 0 C0.99 0.495 0.99 0.495 2 1 C-6.19105112 17.34253195 -15.88348756 31.33589563 -28 45 C-28.58007812 45.66515625 -29.16015625 46.3303125 -29.7578125 47.015625 C-41.93162155 60.10705785 -60.51528101 70.65101569 -78.35546875 72.3125 C-102.49910217 72.77402704 -121.54908197 60.8246682 -138.46972656 44.58984375 C-146.54249142 36.57844753 -152.78674505 27.4701062 -159 18 C-158.34 17.67 -157.68 17.34 -157 17 C-154.97558594 17.89282227 -154.97558594 17.89282227 -152.484375 19.31640625 C-151.11273193 20.08791016 -151.11273193 20.08791016 -149.71337891 20.875 C-148.73546387 21.431875 -147.75754883 21.98875 -146.75 22.5625 C-121.27626311 36.7177691 -91.51903551 45.90367372 -62.1875 38.375 C-41.03400989 32.04893003 -24.0312281 19.07400459 -7.25488281 5.25341797 C-6.60100586 4.71604004 -5.94712891 4.17866211 -5.2734375 3.625 C-4.68997559 3.14289063 -4.10651367 2.66078125 -3.50537109 2.1640625 C-2 1 -2 1 0 0 Z " fill="#B74E2C" transform="translate(339,404)"/>
<path d="M0 0 C1.11352341 -0.00855011 1.11352341 -0.00855011 2.24954224 -0.01727295 C3.82145766 -0.02672405 5.39339291 -0.03325737 6.96533203 -0.03710938 C9.36656402 -0.04680936 11.76693793 -0.07782789 14.16796875 -0.109375 C15.69530742 -0.11590577 17.22265221 -0.12115595 18.75 -0.125 C19.46678925 -0.1373468 20.18357849 -0.1496936 20.92208862 -0.16241455 C24.0085732 -0.1486704 26.20866461 0.04585732 28.96166992 1.49316406 C31.50998516 4.3114808 31.04447016 7.60786 30.9453125 11.203125 C30.95240234 11.92757812 30.95949219 12.65203125 30.96679688 13.3984375 C30.90376661 18.65419229 30.90376661 18.65419229 29.30908203 20.86499023 C26.97089593 22.60199187 25.12900164 22.87299718 22.25390625 23.30078125 C21.23490234 23.46255859 20.21589844 23.62433594 19.16601562 23.79101562 C18.10318359 23.94763672 17.04035156 24.10425781 15.9453125 24.265625 C13.83873595 24.58256613 11.7331882 24.90644705 9.62890625 25.23828125 C8.6948999 25.3762915 7.76089355 25.51430176 6.79858398 25.65649414 C4.32683162 26.0349912 4.32683162 26.0349912 2.5078125 28.203125 C3.0028125 30.183125 3.0028125 30.183125 3.5078125 32.203125 C9.4478125 31.873125 15.3878125 31.543125 21.5078125 31.203125 C22.76166467 33.71082933 22.92547995 35.86827936 23.26171875 38.65625 C23.39384766 39.75066406 23.52597656 40.84507813 23.66210938 41.97265625 C23.79681641 43.12121094 23.93152344 44.26976562 24.0703125 45.453125 C24.20888672 46.58621094 24.34746094 47.71929687 24.49023438 48.88671875 C25.10257998 54.03283499 25.5845221 59.0138897 25.5078125 64.203125 C19.99349858 63.33244385 19.99349858 63.33244385 17.5859375 62.69140625 C3.39056278 59.14256257 -10.82265056 60.53410621 -24.4921875 65.203125 C-26.1557763 65.55149436 -27.82212708 65.88723406 -29.4921875 66.203125 C-28.65055597 58.73308141 -27.78535673 51.2660734 -26.90673828 43.80029297 C-26.51920939 40.43760115 -26.15715627 37.0731412 -25.80078125 33.70703125 C-25.57366558 31.70564404 -25.34583567 29.70433771 -25.1171875 27.703125 C-25.02783936 26.79232178 -24.93849121 25.88151855 -24.84643555 24.94311523 C-23.94919466 17.41004473 -21.74508241 10.27500775 -16.10546875 4.94921875 C-15.34621094 4.51738281 -14.58695313 4.08554687 -13.8046875 3.640625 C-13.03769531 3.18558594 -12.27070313 2.73054688 -11.48046875 2.26171875 C-7.53455323 0.16084821 -4.41976808 0.02605784 0 0 Z " fill="#B5CE4A" transform="translate(255.4921875,35.796875)"/>
<path d="M0 0 C0.73379233 16.06189868 -2.19818599 29.38042005 -12.796875 42.16796875 C-17.00860436 46.53810386 -21.31513439 50.59018886 -27.48046875 51.53125 C-41.49508434 51.41310782 -52.82161586 47.49569108 -63.29296875 37.8984375 C-67.79602376 33.11658171 -74 25.92808724 -74 19 C-68.11455239 16.96802648 -62.21631114 15.17766066 -56.1875 13.625 C-55.37490723 13.41294922 -54.56231445 13.20089844 -53.72509766 12.98242188 C-48.62251697 11.65717778 -43.50899103 10.38030869 -38.39013672 9.11962891 C-37.5601416 8.91515137 -36.73014648 8.71067383 -35.875 8.5 C-35.05016113 8.29681152 -34.22532227 8.09362305 -33.37548828 7.88427734 C-27.01856803 6.29911341 -20.73315854 4.52072475 -14.46630859 2.61132812 C-9.50504728 1.10529707 -5.19504191 0 0 0 Z " fill="#FCC244" transform="translate(365,221)"/>
<path d="M0 0 C7.26230622 0.57314151 13.83678525 2.19551978 20.8125 4.25 C28.61637309 6.49696045 36.41862847 8.6550059 44.3125 10.5625 C54.32478308 12.99488562 64.15959382 15.95366149 74 19 C72.23974923 24.82559184 69.49499625 29.08687699 66 34 C65.13375 35.299375 65.13375 35.299375 64.25 36.625 C55.4494957 45.9144212 43.45351782 51.01162605 30.75 51.8125 C24.42525801 51.54366309 20.841704 49.75496777 16.24609375 45.46875 C5.89555992 34.09216325 -0.25815852 22.65727619 -0.0625 7.125 C-0.05798828 6.43664062 -0.05347656 5.74828125 -0.04882812 5.0390625 C-0.03716336 3.35933665 -0.01923271 1.67965625 0 0 Z " fill="#FCC344" transform="translate(147,221)"/>
<path d="M0 0 C35.86979568 -2.42258556 35.86979568 -2.42258556 51.18847656 10.48632812 C53.77470865 12.64733068 56.48992044 14.47071068 59.3125 16.3125 C60.09238281 16.86550781 60.87226563 17.41851562 61.67578125 17.98828125 C65.56444887 19.68099539 69.0125817 18.35898513 72.88085938 16.95263672 C73.85861328 16.53256348 74.83636719 16.11249023 75.84375 15.6796875 C76.92527344 15.22722656 78.00679688 14.77476562 79.12109375 14.30859375 C81.37651665 13.35166866 83.62913309 12.38810215 85.87890625 11.41796875 C86.96042969 10.96808594 88.04195313 10.51820313 89.15625 10.0546875 C90.13400391 9.63687012 91.11175781 9.21905273 92.11914062 8.78857422 C97.52222792 7.30959354 101.85973169 9.17902447 106.84375 11.3203125 C107.92527344 11.77277344 109.00679688 12.22523438 110.12109375 12.69140625 C112.37651665 13.64833134 114.62913309 14.61189785 116.87890625 15.58203125 C117.96042969 16.03191406 119.04195313 16.48179687 120.15625 16.9453125 C121.13400391 17.36312988 122.11175781 17.78094727 123.11914062 18.21142578 C127.40675037 19.38506811 130.46421893 18.78875457 134.39013672 16.77246094 C135.14568848 16.26489258 135.90124023 15.75732422 136.6796875 15.234375 C137.52660156 14.67363281 138.37351562 14.11289062 139.24609375 13.53515625 C140.11363281 12.94605469 140.98117187 12.35695313 141.875 11.75 C144.45442721 10.02909279 147.03417013 8.31028287 149.62988281 6.61401367 C151.96055951 5.08771501 151.96055951 5.08771501 153.79980469 3.47387695 C160.55111332 -1.86822394 169.35599573 -0.53480749 177.5 -0.3125 C179.10152768 -0.28738499 180.70309329 -0.26457746 182.3046875 -0.24414062 C186.20407136 -0.1893986 190.10161285 -0.10330853 194 0 C193.3566152 1.313702 192.71021785 2.62592898 192.0625 3.9375 C191.70285156 4.66839844 191.34320313 5.39929688 190.97265625 6.15234375 C190 8 190 8 189 9 C186.89481134 9.03628653 184.78855529 9.01251883 182.68359375 8.96484375 C161.66116051 8.7184471 161.66116051 8.7184471 143.60400391 18.65136719 C141.01166763 20.83098143 138.27770817 22.74892685 135.5 24.6875 C134.18515625 25.68330078 134.18515625 25.68330078 132.84375 26.69921875 C128.94798776 28.4812089 126.00360782 28.10914829 122 27 C117.30837187 25.2465768 112.76599198 23.16176743 108.22070312 21.0625 C100.8055334 17.82641481 95.96186489 17.25433434 88.31860352 19.94335938 C85.43132356 21.08742758 82.59006757 22.30602024 79.75 23.5625 C77.83168288 24.40528065 75.90990279 25.24023283 73.984375 26.06640625 C73.14616211 26.43709229 72.30794922 26.80777832 71.44433594 27.18969727 C68.69065143 28.10254973 66.88197345 28.36484914 64 28 C61.40039062 26.6706543 61.40039062 26.6706543 58.65625 24.82421875 C57.65722656 24.16099609 56.65820312 23.49777344 55.62890625 22.81445312 C54.59636719 22.11255859 53.56382812 21.41066406 52.5 20.6875 C50.44828837 19.31585009 48.39621749 17.94473737 46.34375 16.57421875 C45.43818359 15.96151123 44.53261719 15.34880371 43.59960938 14.7175293 C42.74173828 14.15074463 41.88386719 13.58395996 41 13 C40.21109375 12.43603516 39.4221875 11.87207031 38.609375 11.29101562 C35.2089427 9.60861611 32.68854424 9.69413097 28.90625 9.76953125 C27.53255353 9.77162971 26.15885412 9.77223535 24.78515625 9.77148438 C22.63822918 9.78598732 20.49350086 9.81266141 18.34716797 9.8659668 C6.30359735 10.12658448 6.30359735 10.12658448 2.91796875 7.20068359 C0 2.59460827 0 2.59460827 0 0 Z " fill="#2F3436" transform="translate(159,356)"/>
<path d="M0 0 C0.57595369 17.00129959 -1.89845017 31.11521082 -13.9296875 44.015625 C-16.76154988 46.72993837 -19.70721108 48.87340716 -23 51 C-23.66 50.67 -24.32 50.34 -25 50 C-24.46890625 49.23558594 -23.9378125 48.47117187 -23.390625 47.68359375 C-13.88966684 33.27611887 -12.34494457 19.90406939 -13 3 C-11.39743892 2.49487756 -9.79288208 1.99608373 -8.1875 1.5 C-7.29417969 1.2215625 -6.40085937 0.943125 -5.48046875 0.65625 C-3 0 -3 0 0 0 Z " fill="#2F3436" transform="translate(385,215)"/>
<path d="M0 0 C1.43793392 0.31049726 2.8753318 0.6234776 4.3125 0.9375 C5.11300781 1.11152344 5.91351563 1.28554687 6.73828125 1.46484375 C9 2 9 2 12 3 C12.01981934 3.56396484 12.03963867 4.12792969 12.06005859 4.70898438 C12.15631811 7.30639574 12.26558052 9.90311103 12.375 12.5 C12.4059375 13.386875 12.436875 14.27375 12.46875 15.1875 C13.05201111 28.40808519 17.6329438 40.05465937 25 51 C13.97374268 47.11179347 7.56202407 37.38751145 2.6796875 27.26171875 C-0.84612326 18.34856778 -0.37651766 9.41294148 0 0 Z " fill="#2F3436" transform="translate(127,215)"/>
</svg>
